<?xml version="1.0" encoding="utf-8"?>
<!-- Generator: Adobe Illustrator 16.0.0, SVG Export Plug-In . SVG Version: 6.00 Build 0)  -->
<!DOCTYPE svg PUBLIC "-//W3C//DTD SVG 1.1//EN" "http://www.w3.org/Graphics/SVG/1.1/DTD/svg11.dtd">
<svg version="1.1" xmlns="http://www.w3.org/2000/svg" xmlns:xlink="http://www.w3.org/1999/xlink" x="0px" y="0px" width="184px"
	 height="46px" viewBox="0 0 184 46" enable-background="new 0 0 184 46" xml:space="preserve">
<g id="consulting_1_" enable-background="new    ">
	<g id="consulting">
		<g>
			<path fill-rule="evenodd" clip-rule="evenodd" fill="#FFFFFF" d="M9.69,35.609c-2.119,0-3.576-1.782-3.576-4.137
				c0-2.287,1.391-4.104,3.676-4.104c1.357,0,2.384,0.571,3.245,1.782l4.205-3.094c-1.523-2.456-3.974-4.07-7.649-4.07
				c-5.663,0-9.603,4.339-9.603,9.485c0,5.214,3.974,9.519,9.371,9.519c3.94,0,6.325-1.682,7.98-4.171l-4.271-3.128
				C12.075,34.87,11.181,35.609,9.69,35.609z M26.939,21.954c-5.762,0-9.934,4.339-9.934,9.519c0,5.247,4.139,9.519,9.868,9.519
				c5.762,0,9.934-4.339,9.934-9.519C36.808,26.226,32.668,21.954,26.939,21.954z M26.939,35.576c-2.218,0-3.808-1.884-3.808-4.104
				c0-2.254,1.457-4.104,3.742-4.104c2.219,0,3.808,1.884,3.808,4.104C30.682,33.727,29.225,35.576,26.939,35.576z M49.785,21.954
				c-2.55,0-4.206,1.446-5.364,2.96v-2.557h-6.292v18.196h6.292v-9.854c0-1.984,1.125-3.062,2.649-3.062
				c1.49,0,2.517,1.077,2.517,3.062v9.854h6.292V28.647C55.878,24.51,53.593,21.954,49.785,21.954z M65.874,29.018
				c-1.887-0.572-2.913-0.908-2.913-1.615c0-0.571,0.496-0.941,1.457-0.941c1.424,0,3.443,0.639,5.298,1.682l2.152-4.036
				c-2.053-1.346-4.769-2.119-7.385-2.119c-4.139,0-7.186,2.152-7.186,6.021c0,3.733,2.814,4.911,6.358,5.887
				c1.887,0.504,2.881,0.841,2.881,1.547s-0.497,1.043-1.59,1.043c-1.854,0-4.106-0.706-6.159-2.086l-2.351,3.868
				c2.483,1.816,5.463,2.691,8.477,2.691c4.371,0,7.318-2.086,7.318-6.088C72.232,31.271,69.418,30.06,65.874,29.018z
				 M84.813,32.213c0,1.984-1.126,3.061-2.615,3.061c-1.523,0-2.55-1.076-2.55-3.061v-9.855h-6.292v11.907
				c0,4.137,2.285,6.693,6.093,6.693c2.55,0,4.206-1.379,5.364-2.893v2.488h6.292V22.357h-6.292V32.213z M93.286,40.554h6.292V16
				h-6.292V40.554z M109.688,17.999h-6.511v4.571h-2.192v5.104h2.192v7.34c0,4.304,2.33,5.972,6.236,5.972
				c1.816,0,3.358-0.4,4.523-1.034v-4.971c-0.788,0.367-1.61,0.601-2.467,0.601c-1.199,0-1.782-0.534-1.782-1.802v-6.105h4.317
				V22.57h-4.317V17.999z M116.13,40.991h6.743V22.471h-6.743V40.991z M115.988,20.793h7.026V16h-7.026V20.793z M136.971,21.954
				c-2.55,0-4.205,1.446-5.364,2.96v-2.557h-6.291v18.196h6.291v-9.854c0-1.984,1.126-3.062,2.649-3.062
				c1.49,0,2.517,1.077,2.517,3.062v9.854h6.291V28.647C143.063,24.51,140.779,21.954,136.971,21.954z M157.697,22.357v2.152
				c-1.358-1.446-2.947-2.556-5.63-2.556c-4.139,0-7.748,3.229-7.748,8.476c0,5.281,3.543,8.51,7.947,8.51
				c2.615,0,4.271-1.244,5.529-2.725v0.707c0,2.893-1.556,4.474-4.702,4.474c-2.417,0-4.338-0.64-6.258-1.716l-2.021,4.238
				c2.583,1.345,5.497,2.085,8.974,2.085c3.742,0,6.259-0.908,7.881-2.556c1.59-1.615,2.318-3.936,2.318-7.266V22.357H157.697z
				 M154.153,34.029c-2.152,0-3.675-1.48-3.675-3.498c0-2.086,1.522-3.6,3.675-3.6c2.119,0,3.643,1.48,3.643,3.498
				C157.796,32.516,156.272,34.029,154.153,34.029z"/>
		</g>
	</g>
</g>
<g id="Rectangle_34_1_" enable-background="new    ">
	<g id="Rectangle_34">
		<g>
			<path fill-rule="evenodd" clip-rule="evenodd" fill="#FDE428" d="M169.218,5.996h-0.909v1.849h0.919
				c0.689,0,1.109-0.36,1.109-0.93C170.337,6.315,169.917,5.996,169.218,5.996z M151,0l-8,14.999h32L184,0H151z M163.455,11.413
				h-1.689l-1.409-4.028l-1.399,4.028h-1.688l-2.339-7.047h2.049l1.22,4.048l1.349-4.067h1.669l1.35,4.067l1.22-4.048h2.009
				L163.455,11.413z M169.268,9.364h-0.959v1.998h-1.939V4.366h2.999c1.769,0,2.908,0.91,2.908,2.479
				C172.276,8.494,171.007,9.364,169.268,9.364z"/>
		</g>
	</g>
</g>
</svg>
