<svg xmlns="http://www.w3.org/2000/svg" xmlns:xlink="http://www.w3.org/1999/xlink" preserveAspectRatio="xMidYMid" width="184.031" height="45.344" viewBox="0 0 184.031 45.344">
  <defs>
    <style>
      .cls-1 {
        fill: #30344d;
      }

      .cls-1, .cls-2 {
        fill-rule: evenodd;
      }

      .cls-2 {
        fill: #a5d4ce;
      }
    </style>
  </defs>
  <g>
    <path d="M159.147,42.838 C157.529,44.456 155.021,45.347 151.291,45.347 C147.826,45.347 144.921,44.621 142.347,43.300 L144.360,39.142 C146.275,40.198 148.189,40.825 150.598,40.825 C153.734,40.825 155.285,39.274 155.285,36.435 L155.285,35.742 C154.031,37.194 152.381,38.416 149.773,38.416 C145.384,38.416 141.852,35.247 141.852,30.065 C141.852,24.917 145.450,21.748 149.575,21.748 C152.248,21.748 153.833,22.837 155.186,24.257 L155.186,22.144 L161.457,22.144 L161.457,35.709 C161.457,38.977 160.731,41.254 159.147,42.838 ZM151.654,26.633 C149.509,26.633 147.991,28.118 147.991,30.164 C147.991,32.145 149.509,33.597 151.654,33.597 C153.767,33.597 155.285,32.112 155.285,30.065 C155.285,28.085 153.767,26.633 151.654,26.633 ZM134.330,30.329 C134.330,28.382 133.307,27.326 131.822,27.326 C130.304,27.326 129.181,28.382 129.181,30.329 L129.181,40.000 L122.911,40.000 L122.911,22.144 L129.181,22.144 L129.181,24.653 C130.337,23.167 131.987,21.748 134.528,21.748 C138.324,21.748 140.601,24.257 140.601,28.316 L140.601,40.000 L134.330,40.000 L134.330,30.329 ZM114.331,15.906 L120.866,15.906 L120.866,20.527 L114.331,20.527 L114.331,15.906 ZM108.788,33.234 C108.788,34.488 109.349,35.016 110.504,35.016 C111.329,35.016 112.121,34.785 112.881,34.422 L112.881,39.340 C111.758,39.967 110.273,40.363 108.524,40.363 C104.761,40.363 102.517,38.713 102.517,34.455 L102.517,27.194 L100.405,27.194 L100.405,22.144 L102.517,22.144 L102.517,17.623 L108.788,17.623 L108.788,22.144 L112.947,22.144 L112.947,27.194 L108.788,27.194 L108.788,33.234 ZM92.980,15.906 L99.251,15.906 L99.251,40.000 L92.980,40.000 L92.980,15.906 ZM84.534,37.557 C83.379,39.043 81.729,40.396 79.188,40.396 C75.392,40.396 73.115,37.888 73.115,33.828 L73.115,22.144 L79.386,22.144 L79.386,31.815 C79.386,33.762 80.409,34.818 81.927,34.818 C83.412,34.818 84.534,33.762 84.534,31.815 L84.534,22.144 L90.805,22.144 L90.805,40.000 L84.534,40.000 L84.534,37.557 ZM71.995,34.422 C71.995,38.350 69.058,40.396 64.701,40.396 C61.698,40.396 58.727,39.538 56.252,37.755 L58.595,33.960 C60.641,35.313 62.886,36.006 64.734,36.006 C65.823,36.006 66.318,35.676 66.318,34.983 C66.318,34.290 65.328,33.960 63.447,33.465 C59.915,32.508 57.110,31.353 57.110,27.689 C57.110,23.893 60.146,21.781 64.272,21.781 C66.879,21.781 69.586,22.540 71.632,23.861 L69.487,27.821 C67.638,26.798 65.625,26.171 64.206,26.171 C63.249,26.171 62.754,26.534 62.754,27.095 C62.754,27.788 63.777,28.118 65.658,28.679 C69.190,29.702 71.995,30.891 71.995,34.422 ZM49.423,30.329 C49.423,28.382 48.400,27.326 46.915,27.326 C45.396,27.326 44.274,28.382 44.274,30.329 L44.274,40.000 L38.003,40.000 L38.003,22.144 L44.274,22.144 L44.274,24.653 C45.429,23.167 47.080,21.748 49.621,21.748 C53.417,21.748 55.694,24.257 55.694,28.316 L55.694,40.000 L49.423,40.000 L49.423,30.329 ZM26.785,40.429 C21.075,40.429 16.950,36.237 16.950,31.089 C16.950,26.006 21.108,21.748 26.851,21.748 C32.561,21.748 36.687,25.940 36.687,31.089 C36.687,36.171 32.528,40.429 26.785,40.429 ZM26.785,27.062 C24.508,27.062 23.055,28.877 23.055,31.089 C23.055,33.267 24.640,35.115 26.851,35.115 C29.128,35.115 30.581,33.300 30.581,31.089 C30.581,28.910 28.996,27.062 26.785,27.062 ZM9.758,27.062 C7.480,27.062 6.094,28.844 6.094,31.089 C6.094,33.399 7.546,35.148 9.658,35.148 C11.144,35.148 12.035,34.422 13.025,33.267 L17.283,36.336 C15.632,38.779 13.256,40.429 9.328,40.429 C3.949,40.429 -0.012,36.204 -0.012,31.089 C-0.012,26.039 3.916,21.781 9.559,21.781 C13.223,21.781 15.665,23.365 17.184,25.775 L12.992,28.811 C12.134,27.623 11.111,27.062 9.758,27.062 ZM120.734,40.000 L114.463,40.000 L114.463,22.144 L120.734,22.144 L120.734,40.000 Z" class="cls-1"/>
    <path d="M151.031,-0.001 L184.031,-0.001 L175.031,14.999 L143.031,14.999 L151.031,-0.001 Z" class="cls-2"/>
    <path d="M169.299,9.364 L168.339,9.364 L168.339,11.363 L166.400,11.363 L166.400,4.366 L169.399,4.366 C171.168,4.366 172.307,5.276 172.307,6.845 C172.307,8.494 171.038,9.364 169.299,9.364 ZM169.249,5.996 L168.339,5.996 L168.339,7.844 L169.259,7.844 C169.948,7.844 170.368,7.485 170.368,6.915 C170.368,6.315 169.948,5.996 169.249,5.996 ZM161.797,11.413 L160.388,7.385 L158.988,11.413 L157.299,11.413 L154.961,4.366 L157.010,4.366 L158.229,8.414 L159.578,4.346 L161.247,4.346 L162.596,8.414 L163.816,4.366 L165.825,4.366 L163.486,11.413 L161.797,11.413 Z" class="cls-1"/>
  </g>
</svg>
