<svg xmlns="http://www.w3.org/2000/svg" xmlns:xlink="http://www.w3.org/1999/xlink" preserveAspectRatio="xMidYMid" width="67.124" height="67.063" viewBox="0 0 67.124 67.063">
  <defs>
    <style>
      .cls-1 {
        fill: #bfbfbf;
        fill-rule: evenodd;
      }
    </style>
  </defs>
  <path d="M53.506,15.434 C53.040,15.434 52.480,15.434 51.921,15.528 C51.455,12.545 49.591,9.936 46.796,8.631 C44.745,7.699 42.509,7.419 40.458,8.072 C36.824,1.734 29.275,-1.434 22.192,0.616 C15.296,2.573 10.636,8.817 10.636,15.807 C4.485,17.112 0.012,22.611 0.012,29.134 C0.012,36.683 6.163,42.741 13.618,42.741 L21.633,42.741 L24.243,55.696 C24.429,56.534 25.174,57.187 26.106,57.187 L31.698,57.187 L31.698,65.202 C31.698,66.227 32.537,67.066 33.562,67.066 C34.587,67.066 35.426,66.227 35.426,65.202 L35.426,57.187 L41.018,57.187 C41.949,57.187 42.695,56.534 42.881,55.696 L45.491,42.741 L53.506,42.741 C61.054,42.741 67.112,36.590 67.112,29.134 C67.112,21.679 60.961,15.434 53.506,15.434 ZM39.526,53.459 L27.597,53.459 L24.429,37.522 L42.788,37.522 L39.526,53.459 ZM53.506,39.013 L46.236,39.013 L46.796,36.031 C46.889,35.472 46.796,34.913 46.423,34.447 C46.050,33.981 45.584,33.794 45.025,33.794 L42.043,33.794 L42.043,23.729 C42.043,22.704 41.204,21.865 40.179,21.865 C39.154,21.865 38.315,22.704 38.315,23.729 L38.315,33.794 L28.902,33.794 L28.902,23.729 C28.902,22.704 28.063,21.865 27.038,21.865 C26.013,21.865 25.174,22.704 25.174,23.729 L25.174,33.794 L22.192,33.794 C21.633,33.794 21.074,34.074 20.794,34.447 C20.422,34.913 20.328,35.472 20.422,36.031 L20.981,39.013 L13.712,39.013 C8.213,39.013 3.833,34.540 3.833,29.134 C3.833,24.008 7.747,19.721 12.873,19.255 C13.339,19.255 13.805,18.976 14.177,18.603 C14.364,18.137 14.457,17.671 14.457,17.205 C13.805,11.334 17.533,5.835 23.217,4.157 C29.089,2.480 35.426,5.462 37.849,11.054 C38.035,11.520 38.408,11.893 38.874,12.079 C39.340,12.266 39.899,12.266 40.365,11.986 C41.949,11.240 43.720,11.240 45.211,11.893 C47.355,12.918 48.566,15.155 48.287,17.485 C48.194,18.137 48.473,18.696 48.939,19.162 C49.405,19.535 50.057,19.721 50.616,19.535 C51.548,19.255 52.480,19.162 53.412,19.162 C58.911,19.162 63.291,23.636 63.291,29.041 C63.384,34.540 58.911,39.013 53.506,39.013 Z" class="cls-1"/>
</svg>
