<svg xmlns="http://www.w3.org/2000/svg" xmlns:xlink="http://www.w3.org/1999/xlink" preserveAspectRatio="xMidYMid" width="42" height="42" viewBox="0 0 42 42">
  <defs>
    <style>
      .cls-1 {
        fill: #d54e21;
        fill-rule: evenodd;
      }
    </style>
  </defs>
  <path d="M41.800,15.055 L34.652,22.203 L34.620,22.265 L34.590,22.265 L15.055,41.801 C14.927,41.929 14.757,41.999 14.575,41.999 C14.394,41.999 14.224,41.929 14.095,41.801 L12.371,40.077 C12.107,39.812 12.107,39.382 12.371,39.118 C12.856,38.633 12.856,37.844 12.371,37.359 C12.148,37.136 11.828,37.008 11.492,37.008 C11.156,37.008 10.836,37.136 10.613,37.359 C10.484,37.487 10.314,37.558 10.133,37.558 C9.952,37.558 9.782,37.487 9.654,37.359 L8.506,36.211 C8.378,36.083 8.307,35.913 8.307,35.731 C8.307,35.550 8.378,35.380 8.506,35.252 C8.990,34.767 8.990,33.978 8.506,33.493 C8.283,33.270 7.962,33.143 7.627,33.143 C7.291,33.143 6.970,33.270 6.747,33.493 C6.619,33.622 6.449,33.692 6.268,33.692 C6.087,33.692 5.917,33.622 5.788,33.493 L4.640,32.345 C4.376,32.081 4.376,31.650 4.640,31.386 C5.124,30.901 5.124,30.113 4.640,29.628 C4.418,29.405 4.097,29.277 3.761,29.277 C3.425,29.277 3.105,29.405 2.882,29.628 C2.754,29.756 2.583,29.826 2.402,29.826 C2.221,29.826 2.051,29.756 1.923,29.628 L0.199,27.904 C0.071,27.777 -0.000,27.606 -0.000,27.424 C-0.000,27.243 0.070,27.073 0.199,26.945 L19.779,7.363 L26.945,0.198 C27.073,0.070 27.243,-0.001 27.424,-0.001 C27.605,-0.001 27.776,0.070 27.904,0.198 L29.628,1.923 C29.754,2.048 29.827,2.223 29.827,2.402 C29.827,2.583 29.756,2.754 29.628,2.881 C29.144,3.366 29.144,4.155 29.628,4.641 C29.851,4.863 30.171,4.991 30.507,4.991 C30.843,4.991 31.164,4.863 31.387,4.640 C31.515,4.512 31.685,4.441 31.866,4.441 C31.866,4.441 31.866,4.441 31.866,4.441 C32.047,4.441 32.218,4.512 32.346,4.641 L33.494,5.788 C33.758,6.052 33.758,6.482 33.494,6.747 C33.009,7.232 33.009,8.021 33.494,8.506 C33.717,8.728 34.037,8.856 34.373,8.856 C34.709,8.856 35.029,8.728 35.252,8.506 C35.374,8.383 35.549,8.313 35.731,8.313 C35.914,8.313 36.088,8.383 36.211,8.506 L37.359,9.654 C37.486,9.780 37.558,9.955 37.558,10.133 C37.558,10.314 37.488,10.485 37.360,10.613 C36.875,11.098 36.875,11.887 37.360,12.372 C37.582,12.595 37.903,12.723 38.238,12.723 C38.574,12.723 38.895,12.594 39.118,12.372 C39.245,12.244 39.416,12.173 39.598,12.173 C39.779,12.173 39.949,12.244 40.077,12.372 L41.801,14.096 C41.929,14.224 42.000,14.396 42.000,14.577 C41.999,14.758 41.928,14.928 41.800,15.055 ZM1.636,27.424 L2.464,28.252 C2.858,28.026 3.303,27.907 3.760,27.907 C4.454,27.907 5.107,28.177 5.598,28.669 C6.426,29.496 6.593,30.795 6.015,31.802 L6.330,32.118 C6.723,31.893 7.168,31.774 7.626,31.774 C8.322,31.774 8.975,32.044 9.465,32.535 C10.293,33.363 10.459,34.661 9.881,35.668 L10.197,35.984 C10.590,35.758 11.035,35.639 11.493,35.639 C12.187,35.639 12.840,35.910 13.331,36.401 C14.158,37.228 14.324,38.527 13.747,39.534 L14.576,40.363 L33.196,21.741 L20.257,8.802 L1.636,27.424 ZM39.536,13.747 C39.144,13.973 38.699,14.092 38.240,14.092 C37.546,14.092 36.893,13.822 36.401,13.330 C35.574,12.503 35.407,11.204 35.985,10.197 L35.670,9.881 C35.278,10.108 34.832,10.227 34.374,10.227 C33.679,10.227 33.026,9.956 32.535,9.465 C31.707,8.637 31.541,7.339 32.119,6.331 L31.804,6.016 C31.412,6.242 30.966,6.361 30.507,6.361 C29.813,6.361 29.160,6.091 28.669,5.599 C27.841,4.771 27.675,3.472 28.252,2.465 L27.424,1.637 L21.218,7.843 L34.157,20.782 L40.364,14.575 L39.536,13.747 ZM29.045,22.189 L16.939,34.297 C16.812,34.425 16.641,34.495 16.459,34.495 C16.278,34.495 16.108,34.425 15.980,34.297 L7.703,26.019 C7.438,25.754 7.438,25.324 7.703,25.060 L19.810,12.953 C19.938,12.825 20.108,12.755 20.289,12.755 C20.470,12.755 20.640,12.825 20.768,12.953 L29.045,21.231 C29.173,21.358 29.244,21.528 29.244,21.709 C29.244,21.891 29.174,22.061 29.045,22.189 ZM20.289,14.392 L9.141,25.539 L16.459,32.858 L27.607,21.710 L20.289,14.392 ZM15.525,29.854 C15.344,29.854 15.173,29.783 15.045,29.655 C14.917,29.527 14.846,29.356 14.846,29.176 C14.846,28.994 14.917,28.824 15.045,28.696 L19.801,23.940 C19.930,23.812 20.100,23.741 20.281,23.741 C20.462,23.741 20.632,23.812 20.760,23.940 C21.024,24.204 21.024,24.635 20.760,24.899 L16.004,29.655 C15.876,29.783 15.706,29.854 15.525,29.854 ZM13.303,26.953 C13.175,27.082 13.005,27.152 12.823,27.152 C12.642,27.152 12.472,27.082 12.344,26.953 C12.216,26.826 12.145,26.656 12.145,26.475 C12.145,26.293 12.216,26.123 12.344,25.995 L19.632,18.707 C19.761,18.578 19.931,18.508 20.112,18.508 C20.293,18.508 20.463,18.578 20.591,18.707 C20.856,18.971 20.856,19.401 20.591,19.666 L13.303,26.953 Z" class="cls-1"/>
</svg>
