<svg xmlns="http://www.w3.org/2000/svg" xmlns:xlink="http://www.w3.org/1999/xlink" preserveAspectRatio="xMidYMid" width="38" height="28" viewBox="0 0 38 28">
  <defs>
    <style>
      .cls-1 {
        fill: #d54e21;
        fill-rule: evenodd;
      }
    </style>
  </defs>
  <path d="M34.057,28.000 L3.943,28.000 C1.769,28.000 -0.000,26.268 -0.000,24.139 L-0.000,3.861 C-0.000,1.732 1.769,-0.000 3.943,-0.000 L34.057,-0.000 C36.231,-0.000 38.000,1.732 38.000,3.861 L38.000,24.139 C38.000,26.268 36.231,28.000 34.057,28.000 ZM36.619,3.861 C36.619,2.447 35.494,1.339 34.057,1.339 L3.943,1.339 C2.497,1.339 1.364,2.447 1.364,3.861 L1.364,4.104 L36.619,4.104 L36.619,3.861 ZM36.619,5.443 L1.364,5.443 L1.364,22.524 L36.619,22.524 L36.619,5.443 ZM36.619,23.879 L1.364,23.879 L1.364,24.138 C1.364,25.529 2.521,26.661 3.943,26.661 L34.057,26.661 C35.470,26.661 36.619,25.529 36.619,24.138 L36.619,23.879 ZM14.978,7.980 C15.035,7.895 15.120,7.819 15.210,7.775 C15.268,7.747 15.323,7.735 15.368,7.725 C15.389,7.721 15.417,7.715 15.427,7.710 L15.566,7.642 L15.585,7.661 C15.784,7.586 16.005,7.508 16.238,7.508 C16.590,7.508 16.957,7.598 17.270,7.761 L25.097,12.195 C25.738,12.545 26.154,13.251 26.154,13.992 C26.154,14.567 25.867,15.117 25.346,15.545 C25.332,15.564 25.316,15.582 25.298,15.597 C25.252,15.668 25.183,15.747 25.086,15.795 L25.031,15.817 L17.369,20.167 L17.368,20.176 L17.254,20.239 C16.950,20.397 16.607,20.480 16.261,20.480 C15.890,20.480 15.523,20.384 15.199,20.203 C14.557,19.846 14.161,19.182 14.141,18.427 L14.141,17.559 L14.141,9.562 C14.141,8.986 14.428,8.437 14.949,8.013 C14.958,8.000 14.968,7.989 14.978,7.980 ZM15.523,18.422 C15.523,18.684 15.655,18.912 15.877,19.033 L15.885,19.037 C16.096,19.164 16.370,19.166 16.582,19.050 L16.631,19.023 L16.646,19.023 L24.294,14.695 C24.302,14.690 24.309,14.682 24.318,14.672 L24.382,14.608 L24.420,14.608 C24.655,14.474 24.789,14.250 24.789,13.991 C24.789,13.734 24.641,13.494 24.402,13.364 L16.602,8.935 C16.478,8.876 16.364,8.847 16.255,8.847 C16.132,8.847 16.025,8.874 15.936,8.929 L15.884,8.961 L15.837,8.961 C15.639,9.100 15.523,9.321 15.523,9.562 L15.523,18.422 Z" class="cls-1"/>
</svg>
