<?xml version="1.0" encoding="utf-8"?>
<!-- Generator: Adobe Illustrator 16.0.0, SVG Export Plug-In . SVG Version: 6.00 Build 0)  -->
<!DOCTYPE svg PUBLIC "-//W3C//DTD SVG 1.1//EN" "http://www.w3.org/Graphics/SVG/1.1/DTD/svg11.dtd">
<svg version="1.1" xmlns="http://www.w3.org/2000/svg" xmlns:xlink="http://www.w3.org/1999/xlink" x="0px" y="0px" width="170px"
	 height="43px" viewBox="0 0 170 43" enable-background="new 0 0 170 43" xml:space="preserve">
<g id="consulting_1_" enable-background="new    ">
	<g id="consulting">
		<g>
			<path fill-rule="evenodd" clip-rule="evenodd" fill="#fff" d="M8.66,31.59c-1.92,0-3.24-1.59-3.24-3.689
				c0-2.04,1.26-3.66,3.33-3.66c1.23,0,2.16,0.51,2.94,1.59l3.81-2.76c-1.38-2.189-3.6-3.63-6.93-3.63c-5.13,0-8.7,3.87-8.7,8.46
				c0,4.649,3.6,8.489,8.489,8.489c3.57,0,5.73-1.5,7.23-3.72l-3.87-2.79C10.819,30.931,10.01,31.59,8.66,31.59z M24.289,19.411
				c-5.22,0-9,3.869-9,8.489c0,4.68,3.75,8.489,8.939,8.489c5.22,0,9-3.869,9-8.489C33.229,23.221,29.479,19.411,24.289,19.411z
				 M24.289,31.561c-2.01,0-3.45-1.681-3.45-3.66c0-2.01,1.32-3.66,3.39-3.66c2.01,0,3.45,1.68,3.45,3.66
				C27.679,29.91,26.359,31.561,24.289,31.561z M44.989,19.411c-2.31,0-3.81,1.289-4.86,2.64v-2.28h-5.7V36h5.7v-8.79
				c0-1.77,1.02-2.729,2.4-2.729c1.35,0,2.28,0.96,2.28,2.729V36h5.7V25.381C50.509,21.69,48.438,19.411,44.989,19.411z
				 M59.568,25.71c-1.71-0.51-2.64-0.81-2.64-1.439c0-0.51,0.45-0.84,1.32-0.84c1.289,0,3.119,0.569,4.8,1.5l1.949-3.6
				c-1.859-1.2-4.319-1.891-6.689-1.891c-3.75,0-6.51,1.92-6.51,5.37c0,3.33,2.55,4.38,5.76,5.25c1.71,0.449,2.61,0.75,2.61,1.38
				s-0.45,0.93-1.44,0.93c-1.68,0-3.72-0.63-5.58-1.86l-2.13,3.45c2.25,1.62,4.95,2.4,7.68,2.4c3.96,0,6.63-1.86,6.63-5.43
				C65.328,27.721,62.778,26.641,59.568,25.71z M76.729,28.561c0,1.77-1.021,2.729-2.37,2.729c-1.38,0-2.31-0.96-2.31-2.729v-8.79
				h-5.7v10.62c0,3.689,2.07,5.97,5.52,5.97c2.311,0,3.811-1.23,4.86-2.58V36h5.699V19.771h-5.699V28.561z M84.408,36h5.7V14.101
				h-5.7V36z M98.777,15.661h-5.699v4.109h-1.92v4.59h1.92v6.6c0,3.87,2.04,5.37,5.459,5.37c1.591,0,2.94-0.36,3.96-0.93v-4.47
				c-0.689,0.329-1.409,0.539-2.159,0.539c-1.051,0-1.561-0.479-1.561-1.619v-5.49h3.78v-4.59h-3.78V15.661z M103.817,18.301h5.94
				v-4.2h-5.94V18.301z M103.938,36h5.7V19.771h-5.7V36z M122.177,19.411c-2.31,0-3.81,1.289-4.859,2.64v-2.28h-5.7V36h5.7v-8.79
				c0-1.77,1.02-2.729,2.399-2.729c1.351,0,2.28,0.96,2.28,2.729V36h5.7V25.381C127.697,21.69,125.627,19.411,122.177,19.411z
				 M140.957,19.771v1.92c-1.23-1.29-2.67-2.279-5.101-2.279c-3.749,0-7.02,2.88-7.02,7.56c0,4.709,3.21,7.59,7.2,7.59
				c2.37,0,3.869-1.11,5.01-2.431v0.63c0,2.58-1.41,3.99-4.26,3.99c-2.19,0-3.93-0.57-5.67-1.53l-1.83,3.78
				c2.34,1.2,4.979,1.859,8.13,1.859c3.39,0,5.67-0.81,7.14-2.279c1.439-1.44,2.1-3.51,2.1-6.479v-12.33H140.957z M137.747,30.181
				c-1.95,0-3.33-1.32-3.33-3.12c0-1.86,1.38-3.21,3.33-3.21c1.92,0,3.3,1.32,3.3,3.12C141.047,28.83,139.667,30.181,137.747,30.181
				z"/>
		</g>
	</g>
</g>
<g id="Rectangle_34_1_" enable-background="new    ">
	<g id="Rectangle_34">
		<g>
			<polygon fill="#fd5e1f" points="137,0 129,14.999 161,14.999 170,0 			"/>
		</g>
	</g>
</g>
<g id="WP_1_" enable-background="new    ">
	<g id="WP">
		<g>
			<path fill-rule="evenodd" clip-rule="evenodd" fill="#fff" d="M148.565,8.414l-1.35-4.067h-1.669l-1.349,4.067l-1.22-4.048
				h-2.049l2.339,7.047h1.688l1.399-4.028l1.409,4.028h1.689l2.339-7.047h-2.009L148.565,8.414z M155.368,4.366h-2.999v6.996h1.939
				V9.364h0.959c1.739,0,3.009-0.87,3.009-2.52C158.276,5.276,157.137,4.366,155.368,4.366z M155.228,7.845h-0.919V5.996h0.909
				c0.699,0,1.119,0.319,1.119,0.919C156.337,7.484,155.917,7.845,155.228,7.845z"/>
		</g>
	</g>
</g>
</svg>
