<?xml version="1.0" encoding="utf-8"?>
<!-- Generator: Adobe Illustrator 18.1.1, SVG Export Plug-In . SVG Version: 6.00 Build 0)  -->
<svg version="1.1" id="Layer_1" xmlns="http://www.w3.org/2000/svg" xmlns:xlink="http://www.w3.org/1999/xlink" x="0px" y="0px"
	 viewBox="-340 405.4 171 41" enable-background="new -340 405.4 171 41" xml:space="preserve">
<path fill="#002e5b" d="M-194.4,444c-1.5,1.5-3.8,2.3-7.1,2.3c-3.2,0-5.8-0.7-8.1-1.9l1.8-3.8c1.7,1,3.5,1.5,5.7,1.5
	c2.8,0,4.3-1.4,4.3-4v-0.6c-1.1,1.3-2.6,2.4-5,2.4c-4,0-7.2-2.9-7.2-7.6c0-4.7,3.3-7.6,7-7.6c2.4,0,3.9,1,5.1,2.3v-1.9h5.7v12.3
	C-192.3,440.5-193,442.5-194.4,444z M-201.3,429.2c-1.9,0-3.3,1.4-3.3,3.2c0,1.8,1.4,3.1,3.3,3.1c1.9,0,3.3-1.4,3.3-3.2
	C-198,430.6-199.3,429.2-201.3,429.2z M-217,432.6c0-1.8-0.9-2.7-2.3-2.7c-1.4,0-2.4,1-2.4,2.7v8.8h-5.7v-16.2h5.7v2.3
	c1.1-1.4,2.6-2.6,4.9-2.6c3.4,0,5.5,2.3,5.5,6v10.6h-5.7V432.6z M-235.2,419.5h5.9v4.2h-5.9V419.5z M-240.2,435.2
	c0,1.1,0.5,1.6,1.6,1.6c0.8,0,1.5-0.2,2.2-0.5v4.5c-1,0.6-2.4,0.9-4,0.9c-3.4,0-5.5-1.5-5.5-5.4v-6.6h-1.9v-4.6h1.9v-4.1h5.7v4.1
	h3.8v4.6h-3.8V435.2z M-254.6,419.5h5.7v21.9h-5.7V419.5z M-262.3,439.2c-1,1.3-2.5,2.6-4.9,2.6c-3.4,0-5.5-2.3-5.5-6v-10.6h5.7v8.8
	c0,1.8,0.9,2.7,2.3,2.7c1.4,0,2.4-1,2.4-2.7v-8.8h5.7v16.2h-5.7V439.2z M-273.7,436.3c0,3.6-2.7,5.4-6.6,5.4c-2.7,0-5.4-0.8-7.7-2.4
	l2.1-3.5c1.9,1.2,3.9,1.9,5.6,1.9c1,0,1.4-0.3,1.4-0.9c0-0.6-0.9-0.9-2.6-1.4c-3.2-0.9-5.8-1.9-5.8-5.3c0-3.4,2.8-5.4,6.5-5.4
	c2.4,0,4.8,0.7,6.7,1.9l-1.9,3.6c-1.7-0.9-3.5-1.5-4.8-1.5c-0.9,0-1.3,0.3-1.3,0.8c0,0.6,0.9,0.9,2.6,1.4
	C-276.2,432-273.7,433.1-273.7,436.3z M-294.2,432.6c0-1.8-0.9-2.7-2.3-2.7c-1.4,0-2.4,1-2.4,2.7v8.8h-5.7v-16.2h5.7v2.3
	c1.1-1.4,2.6-2.6,4.9-2.6c3.4,0,5.5,2.3,5.5,6v10.6h-5.7V432.6z M-314.8,441.8c-5.2,0-8.9-3.8-8.9-8.5c0-4.6,3.8-8.5,9-8.5
	c5.2,0,8.9,3.8,8.9,8.5C-305.8,437.9-309.6,441.8-314.8,441.8z M-314.8,429.6c-2.1,0-3.4,1.6-3.4,3.7c0,2,1.4,3.7,3.5,3.7
	c2.1,0,3.4-1.7,3.4-3.7C-311.3,431.3-312.8,429.6-314.8,429.6z M-330.3,429.6c-2.1,0-3.3,1.6-3.3,3.7c0,2.1,1.3,3.7,3.2,3.7
	c1.4,0,2.2-0.7,3.1-1.7l3.9,2.8c-1.5,2.2-3.7,3.7-7.2,3.7c-4.9,0-8.5-3.8-8.5-8.5c0-4.6,3.6-8.5,8.7-8.5c3.3,0,5.5,1.4,6.9,3.6
	l-3.8,2.8C-328.1,430.1-329,429.6-330.3,429.6z M-229.4,441.4h-5.7v-16.2h5.7V441.4z"/>
<path fill="#fde428" d="M-202,405.4h33l-9,15h-32L-202,405.4z"/>
<path fill="#000000" d="M-183.7,414.8h-1v2h-1.9v-7h3c1.8,0,2.9,0.9,2.9,2.5C-180.7,413.9-182,414.8-183.7,414.8z M-183.8,411.4
	h-0.9v1.8h0.9c0.7,0,1.1-0.4,1.1-0.9C-182.7,411.7-183.1,411.4-183.8,411.4z M-191.2,416.8l-1.4-4l-1.4,4h-1.7l-2.3-7h2l1.2,4
	l1.3-4.1h1.7l1.3,4.1l1.2-4h2l-2.3,7H-191.2z"/>
</svg>
