<svg xmlns="http://www.w3.org/2000/svg" xmlns:xlink="http://www.w3.org/1999/xlink" preserveAspectRatio="xMidYMid" width="36" height="36" viewBox="0 0 36 36">
  <defs>
    <style>
      .cls-1 {
        fill: #d54e21;
        fill-rule: evenodd;
      }
    </style>
  </defs>
  <path d="M35.132,31.859 L18.655,24.220 L8.658,24.220 C3.965,24.220 -0.000,20.382 -0.000,15.839 C-0.000,11.328 3.965,7.518 8.658,7.518 L18.726,7.518 L35.135,-0.000 L36.000,0.535 L36.000,31.324 L35.132,31.859 ZM18.123,8.857 L8.658,8.857 C4.709,8.857 1.373,12.054 1.373,15.839 C1.373,19.656 4.709,22.881 8.658,22.881 L18.123,22.881 L18.123,8.857 ZM34.627,1.712 L19.496,8.645 L19.496,23.127 L34.627,30.142 L34.627,1.712 ZM14.056,12.136 L9.239,12.136 L9.239,10.797 L14.056,10.797 L14.056,12.136 ZM14.056,16.083 L9.239,16.083 L9.239,14.744 L14.056,14.744 L14.056,16.083 ZM14.056,19.969 L9.239,19.969 L9.239,18.630 L14.056,18.630 L14.056,19.969 ZM16.819,26.524 L17.335,26.831 L21.721,35.135 L21.180,36.000 L14.199,36.000 L13.680,35.690 L9.358,27.385 L9.900,26.524 L16.819,26.524 ZM14.685,34.661 L19.926,34.661 L16.336,27.863 L11.147,27.863 L14.685,34.661 Z" class="cls-1"/>
</svg>
