<svg xmlns="http://www.w3.org/2000/svg" width="184.106" height="45.485" viewBox="0 0 184.106 45.485">
  <g id="Logo" transform="translate(-390.894 -17.999)">
    <path id="Path_69" data-name="Path 69" d="M10.3.429a8.863,8.863,0,0,0,7.956-4.093L14-6.734A4.2,4.2,0,0,1,10.63-4.853c-2.113,0-3.565-1.75-3.565-4.06,0-2.245,1.386-4.027,3.664-4.027a3.758,3.758,0,0,1,3.235,1.75l4.192-3.037a8.446,8.446,0,0,0-7.626-3.994A9.278,9.278,0,0,0,.957-8.913,9.23,9.23,0,0,0,10.3.429Zm17.463,0c5.744,0,9.9-4.258,9.9-9.342,0-5.15-4.126-9.342-9.837-9.342-5.744,0-9.9,4.258-9.9,9.342C17.925-3.763,22.051.429,27.762.429Zm.066-5.315a3.871,3.871,0,0,1-3.8-4.027,3.76,3.76,0,0,1,3.73-4.027,3.871,3.871,0,0,1,3.8,4.027A3.76,3.76,0,0,1,27.828-4.886ZM38.986,0h6.272V-9.672c0-1.948,1.122-3,2.641-3,1.486,0,2.509,1.056,2.509,3V0H56.68V-11.686c0-4.06-2.278-6.569-6.074-6.569a6.623,6.623,0,0,0-5.348,2.9v-2.509H38.986ZM65.692.4c4.357,0,7.3-2.047,7.3-5.975,0-3.532-2.806-4.721-6.338-5.744-1.882-.561-2.9-.891-2.9-1.585,0-.561.5-.924,1.452-.924a12.075,12.075,0,0,1,5.282,1.651l2.146-3.961a13.967,13.967,0,0,0-7.362-2.08c-4.126,0-7.163,2.113-7.163,5.909,0,3.664,2.806,4.82,6.338,5.777,1.882.5,2.872.825,2.872,1.519s-.5,1.023-1.585,1.023a11.605,11.605,0,0,1-6.14-2.047l-2.344,3.8A14.4,14.4,0,0,0,65.692.4ZM80.184.4a6.572,6.572,0,0,0,5.348-2.839V0H91.8V-17.859H85.532v9.672c0,1.948-1.122,3-2.608,3-1.519,0-2.542-1.056-2.542-3v-9.672H74.11V-6.173C74.11-2.113,76.388.4,80.184.4Zm13.8-.4h6.272V-24.1H93.983Zm15.548.363A8.946,8.946,0,0,0,113.889-.66V-5.579a5.5,5.5,0,0,1-2.377.594c-1.155,0-1.717-.528-1.717-1.783v-6.041h4.159v-5.051H109.8v-4.523h-6.272v4.523H101.41v5.051h2.113v7.262C103.523-1.287,105.768.363,109.531.363ZM115.473,0h6.272V-17.859h-6.272Zm-.132-19.477h6.536V-24.1h-6.536ZM123.924,0H130.2V-9.672c0-1.948,1.122-3,2.641-3,1.486,0,2.509,1.056,2.509,3V0h6.272V-11.686c0-4.06-2.278-6.569-6.074-6.569a6.623,6.623,0,0,0-5.348,2.9v-2.509h-6.272Zm28.39,5.348c3.73,0,6.239-.891,7.857-2.509,1.585-1.585,2.311-3.862,2.311-7.13V-17.859h-6.272v2.113a7.173,7.173,0,0,0-5.612-2.509c-4.126,0-7.725,3.169-7.725,8.319,0,5.183,3.532,8.352,7.923,8.352a6.92,6.92,0,0,0,5.513-2.674v.693c0,2.839-1.552,4.39-4.688,4.39a12.325,12.325,0,0,1-6.239-1.684L143.368,3.3A19.131,19.131,0,0,0,152.314,5.348ZM152.677-6.4a3.43,3.43,0,0,1-3.664-3.433,3.469,3.469,0,0,1,3.664-3.532,3.42,3.42,0,0,1,3.631,3.433A3.46,3.46,0,0,1,152.677-6.4Z" transform="translate(389.937 58.136)" fill="#304157"/>
    <path id="Rectangle_34" data-name="Rectangle 34" d="M541.989,18H575l-9,15.051H533.986Z" fill="#ffcf2f"/>
    <path id="Path_70" data-name="Path 70" d="M2.491.05H4.181l1.4-4.031L6.992.05H8.683L11.024-7H9.013L7.793-2.951,6.442-7.022H4.772L3.421-2.951,2.2-7H.15Zm9.1-.05h1.941V-2h.96c1.741,0,3.011-.87,3.011-2.521C17.506-6.092,16.366-7,14.595-7h-3Zm1.941-3.521V-5.372h.91c.7,0,1.12.32,1.12.92,0,.57-.42.93-1.11.93Z" transform="translate(545.77 29.401)" fill="#304157"/>
  </g>
</svg>
