<svg xmlns="http://www.w3.org/2000/svg" width="184.004" height="45.504" viewBox="0 0 184.004 45.504">
    <defs>
        <style>
            .cls-1{fill:#fff}.cls-1,.cls-2,.cls-3{fill-rule:evenodd}.cls-2{fill:#ffcf2f}.cls-3{fill:#304157}
        </style>
    </defs>
    <g id="Logo" transform="translate(-.09)">
        <path id="consulting" d="M400.238 118.567a8.857 8.857 0 0 0 7.957-4.107l-4.259-3.08a4.2 4.2 0 0 1-3.368 1.888c-2.113 0-3.565-1.755-3.565-4.073 0-2.252 1.386-4.041 3.664-4.041a3.756 3.756 0 0 1 3.236 1.756l4.193-3.047a8.441 8.441 0 0 0-7.627-4.007 9.357 9.357 0 1 0-.231 18.712zm17.463 0c5.744 0 9.9-4.272 9.9-9.372 0-5.167-4.127-9.372-9.838-9.372-5.745 0-9.9 4.272-9.9 9.372 0 5.166 4.126 9.372 9.837 9.372zm.066-5.332a3.879 3.879 0 0 1-3.8-4.04 3.768 3.768 0 0 1 3.731-4.041 3.879 3.879 0 0 1 3.8 4.041 3.767 3.767 0 0 1-3.731 4.04zm11.156 4.9h6.277v-9.7c0-1.954 1.122-3.014 2.641-3.014 1.486 0 2.509 1.06 2.509 3.014v9.7h6.273v-11.722c0-4.074-2.278-6.59-6.075-6.59a6.618 6.618 0 0 0-5.348 2.914v-2.517h-6.273v17.916zm26.707.4c4.358 0 7.3-2.054 7.3-5.994 0-3.544-2.806-4.736-6.339-5.763-1.882-.563-2.9-.894-2.9-1.59 0-.563.5-.927 1.452-.927a12.047 12.047 0 0 1 5.283 1.656l2.146-3.974a13.935 13.935 0 0 0-7.363-2.086c-4.127 0-7.164 2.119-7.164 5.928 0 3.676 2.806 4.835 6.339 5.795 1.882.5 2.872.828 2.872 1.523s-.5 1.027-1.584 1.027a11.581 11.581 0 0 1-6.141-2.053l-2.345 3.808a14.375 14.375 0 0 0 8.444 2.649zm14.491 0a6.57 6.57 0 0 0 5.349-2.848v2.45h6.273V100.22h-6.273v9.7c0 1.954-1.123 3.014-2.609 3.014-1.518 0-2.542-1.06-2.542-3.014v-9.7h-6.273v11.723c0 4.074 2.278 6.591 6.075 6.591zm13.8-.4h6.273V93.961h-6.273v24.175zm15.549.365a8.925 8.925 0 0 0 4.358-1.027v-4.933a5.488 5.488 0 0 1-2.377.6 1.521 1.521 0 0 1-1.717-1.789v-6.06h4.16v-5.071h-4.16v-4.537h-6.273v4.537h-2.113v5.067h2.113v7.286c0 4.272 2.239 5.927 6.006 5.927zm5.941-.365h6.273V100.22h-6.273v17.916zm-.135-19.535h6.537v-4.639h-6.537zm8.583 19.539h6.273v-9.7c0-1.954 1.122-3.014 2.641-3.014 1.486 0 2.509 1.06 2.509 3.014v9.7h6.273v-11.726c0-4.074-2.278-6.59-6.075-6.59a6.618 6.618 0 0 0-5.348 2.914v-2.517h-6.273v17.916zm28.39 5.365c3.731 0 6.24-.894 7.858-2.517 1.585-1.589 2.311-3.874 2.311-7.153V100.22h-6.273v2.119a7.163 7.163 0 0 0-5.613-2.516c-4.127 0-7.725 3.179-7.725 8.346 0 5.2 3.532 8.379 7.924 8.379a6.913 6.913 0 0 0 5.513-2.683v.7c0 2.848-1.552 4.4-4.688 4.4a12.3 12.3 0 0 1-6.24-1.689l-2.014 4.173a19.081 19.081 0 0 0 8.947 2.051zm.363-11.789a3.435 3.435 0 0 1-3.664-3.445 3.474 3.474 0 0 1 3.664-3.543 3.426 3.426 0 0 1 3.632 3.444 3.467 3.467 0 0 1-3.632 3.541z" class="cls-1" transform="translate(-390.906 -78)"/>
        <path id="Path_1" d="M541.989 78H575l-9 15.051h-32.014z" class="cls-2" data-name="Path 1" transform="translate(-390.906 -78)"/>
        <path id="WP" d="M548.259 89.452h1.69l1.4-4.041 1.409 4.041h1.69l2.34-7.07h-2.01l-1.22 4.062-1.349-4.082h-1.67l-1.35 4.082-1.22-4.062h-2.049zm9.1-.05h1.94v-2h.96c1.739 0 3.009-.873 3.009-2.527 0-1.575-1.14-2.487-2.909-2.487h-3V89.4zm1.94-3.53v-1.856h.91a.939.939 0 0 1 1.12.923.957.957 0 0 1-1.11.933h-.919z" class="cls-3" transform="translate(-390.906 -78)"/>
    </g>
</svg>
