<?xml version="1.0" encoding="utf-8"?>
<!-- Generator: Adobe Illustrator 16.0.0, SVG Export Plug-In . SVG Version: 6.00 Build 0)  -->
<!DOCTYPE svg PUBLIC "-//W3C//DTD SVG 1.1//EN" "http://www.w3.org/Graphics/SVG/1.1/DTD/svg11.dtd">
<svg version="1.1" id="Layer_1" xmlns="http://www.w3.org/2000/svg" xmlns:xlink="http://www.w3.org/1999/xlink" x="0px" y="0px"
	 width="184px" height="46px" viewBox="0 0 184 46" enable-background="new 0 0 184 46" xml:space="preserve">
<g id="consulting_1_" enable-background="new    ">
	<g id="consulting">
		<g>
			<path fill="#FFFFFF" d="M9.69,35.609c-2.119,0-3.576-1.782-3.576-4.137c0-2.287,1.391-4.104,3.676-4.104
				c1.357,0,2.384,0.571,3.245,1.782l4.205-3.094c-1.523-2.457-3.974-4.071-7.649-4.071c-5.663,0-9.603,4.339-9.603,9.485
				c0,5.215,3.974,9.52,9.371,9.52c3.94,0,6.325-1.682,7.98-4.172l-4.271-3.127C12.075,34.87,11.181,35.609,9.69,35.609z
				 M26.939,21.954c-5.762,0-9.934,4.339-9.934,9.519c0,5.248,4.139,9.52,9.868,9.52c5.762,0,9.934-4.34,9.934-9.52
				C36.808,26.227,32.668,21.954,26.939,21.954z M26.939,35.576c-2.218,0-3.808-1.885-3.808-4.104c0-2.255,1.457-4.104,3.742-4.104
				c2.219,0,3.808,1.884,3.808,4.104C30.682,33.727,29.225,35.576,26.939,35.576z M49.785,21.954c-2.55,0-4.206,1.446-5.364,2.96
				v-2.557h-6.292v18.196h6.292v-9.854c0-1.984,1.125-3.063,2.649-3.063c1.49,0,2.517,1.077,2.517,3.063v9.854h6.292V28.646
				C55.878,24.51,53.593,21.954,49.785,21.954z M65.874,29.018c-1.887-0.572-2.913-0.908-2.913-1.615c0-0.57,0.496-0.94,1.457-0.94
				c1.424,0,3.443,0.64,5.298,1.683l2.152-4.037c-2.053-1.345-4.769-2.119-7.385-2.119c-4.139,0-7.186,2.152-7.186,6.021
				c0,3.733,2.814,4.911,6.358,5.887c1.887,0.504,2.881,0.842,2.881,1.547c0,0.707-0.497,1.043-1.59,1.043
				c-1.854,0-4.106-0.705-6.159-2.086l-2.351,3.869c2.483,1.815,5.463,2.69,8.477,2.69c4.371,0,7.318-2.086,7.318-6.088
				C72.232,31.271,69.418,30.061,65.874,29.018z M84.813,32.213c0,1.984-1.126,3.061-2.615,3.061c-1.523,0-2.55-1.076-2.55-3.061
				v-9.855h-6.292v11.908c0,4.137,2.285,6.692,6.093,6.692c2.55,0,4.206-1.379,5.364-2.894v2.488h6.292V22.357h-6.292V32.213z
				 M93.286,40.555h6.292V16h-6.292V40.555z M109.688,17.999h-6.51v4.571h-2.193v5.104h2.193v7.34c0,4.305,2.329,5.973,6.235,5.973
				c1.815,0,3.358-0.4,4.522-1.034V34.98c-0.787,0.367-1.609,0.602-2.467,0.602c-1.199,0-1.781-0.534-1.781-1.803v-6.104h4.316
				V22.57h-4.316V17.999L109.688,17.999z M116.13,40.991h6.743v-18.52h-6.743V40.991z M115.988,20.793h7.025V16h-7.025V20.793z
				 M136.971,21.954c-2.55,0-4.205,1.446-5.363,2.96v-2.557h-6.291v18.196h6.291v-9.854c0-1.984,1.125-3.063,2.648-3.063
				c1.49,0,2.518,1.077,2.518,3.063v9.854h6.291V28.646C143.063,24.51,140.779,21.954,136.971,21.954z M157.697,22.357v2.152
				c-1.358-1.446-2.947-2.556-5.631-2.556c-4.139,0-7.748,3.229-7.748,8.477c0,5.28,3.543,8.51,7.947,8.51
				c2.615,0,4.271-1.244,5.529-2.726v0.707c0,2.894-1.557,4.474-4.701,4.474c-2.418,0-4.339-0.64-6.259-1.715l-2.021,4.237
				c2.582,1.345,5.496,2.085,8.974,2.085c3.741,0,6.259-0.908,7.881-2.557c1.59-1.614,2.317-3.936,2.317-7.266V22.357H157.697z
				 M154.152,34.029c-2.151,0-3.674-1.48-3.674-3.498c0-2.086,1.521-3.6,3.674-3.6c2.119,0,3.644,1.479,3.644,3.498
				C157.796,32.516,156.271,34.029,154.152,34.029z"/>
		</g>
	</g>
</g>
<g id="Rectangle_34_1_" enable-background="new    ">
	<g id="Rectangle_34">
		<g>
			<path fill="#fde953" d="M169.218,5.996h-0.909v1.849h0.92c0.688,0,1.108-0.36,1.108-0.93
				C170.337,6.315,169.917,5.996,169.218,5.996z M151,0l-8,14.999h32L184,0H151z M163.455,11.413h-1.689l-1.408-4.028l-1.399,4.028
				h-1.688l-2.338-7.047h2.049l1.22,4.048l1.349-4.067h1.669l1.351,4.067l1.22-4.048h2.009L163.455,11.413z M169.268,9.364h-0.959
				v1.998h-1.938V4.366h2.999c1.77,0,2.908,0.91,2.908,2.479C172.275,8.494,171.007,9.364,169.268,9.364z"/>
		</g>
	</g>
</g>
</svg>
